<?xml version="1.0" encoding="UTF-8" standalone="no"?>
<!-- Created with Inkscape (http://www.inkscape.org/) -->

<svg
   xmlns:dc="http://purl.org/dc/elements/1.1/"
   xmlns:cc="http://creativecommons.org/ns#"
   xmlns:rdf="http://www.w3.org/1999/02/22-rdf-syntax-ns#"
   xmlns:svg="http://www.w3.org/2000/svg"
   xmlns="http://www.w3.org/2000/svg"
   xmlns:sodipodi="http://sodipodi.sourceforge.net/DTD/sodipodi-0.dtd"
   xmlns:inkscape="http://www.inkscape.org/namespaces/inkscape"
   sodipodi:docname="cat.svg"
   height="48"
   width="48"
   inkscape:version="0.48.4 r9939"
   version="1.1"
   id="svg2">
  <sodipodi:namedview
     pagecolor="#ffffff"
     bordercolor="#666666"
     borderopacity="1"
     objecttolerance="10"
     gridtolerance="10"
     guidetolerance="10"
     inkscape:pageopacity="0"
     inkscape:pageshadow="2"
     inkscape:window-width="1215"
     inkscape:window-height="776"
     id="namedview4"
     showgrid="false"
     inkscape:zoom="7.5871146"
     inkscape:cx="-17.401032"
     inkscape:cy="41.092461"
     inkscape:window-x="65"
     inkscape:window-y="24"
     inkscape:window-maximized="1"
     inkscape:current-layer="svg2">
    <inkscape:grid
       type="xygrid"
       id="grid3834" />
  </sodipodi:namedview>
  <metadata
     id="metadata8">
    <rdf:RDF>
      <cc:Work
         rdf:about="">
        <dc:format>image/svg+xml</dc:format>
        <dc:type
           rdf:resource="http://purl.org/dc/dcmitype/StillImage" />
        <dc:title></dc:title>
      </cc:Work>
    </rdf:RDF>
  </metadata>
  <defs
     id="defs6">
    <inkscape:path-effect
       effect="bend_path"
       id="path-effect3988"
       is_visible="true"
       bendpath="m 36.84375,42.734375 3.370398,0"
       prop_scale="1"
       scale_y_rel="false"
       vertical="false" />
    <inkscape:path-effect
       effect="bend_path"
       id="path-effect3941"
       is_visible="true"
       bendpath="m 36.291734,54.515396 c 0,0 4.423677,-3.344538 5.581848,-5.367909 2.366002,-4.133501 1.614262,-15.364668 1.614262,-15.364668"
       prop_scale="1"
       scale_y_rel="false"
       vertical="true"
       bendpath-nodetypes="csc" />
    <inkscape:path-effect
       effect="bend_path"
       id="path-effect3941-1"
       is_visible="true"
       bendpath="m 68.800155,52.38254 c 0,0 4.423677,-3.344538 5.581848,-5.367909 2.366002,-4.133501 1.614262,-15.364668 1.614262,-15.364668"
       prop_scale="1"
       scale_y_rel="false"
       vertical="true"
       bendpath-nodetypes="csc" />
  </defs>
  <g
     id="g3083"
     transform="matrix(-1,0,0,1,48.848816,0)"
     inkscape:export-xdpi="90"
     inkscape:export-ydpi="90"
     inkscape:export-filename="/home/patricia/Julien/catsmen/img/cats/cat_L_yellow.png">
    <rect
       transform="scale(-1,1)"
       inkscape:export-ydpi="90"
       inkscape:export-xdpi="90"
       inkscape:export-filename="/home/patricia/Julien/catsmen/img/cats/cat_L_orange.png"
       y="-0.20436838"
       x="-48.424408"
       height="48"
       width="48"
       id="rect3101-7"
       style="fill:#000000;fill-opacity:1;fill-rule:nonzero;stroke:none" />
    <path
       inkscape:export-ydpi="90"
       inkscape:export-xdpi="90"
       inkscape:export-filename="/home/patricia/Julien/catsmen/img/cats/cat_R_yellow.png"
       sodipodi:nodetypes="cccccsccccccccccccccsccccczc"
       inkscape:connector-curvature="0"
       style="fill:#ffcc00;stroke:none"
       d="m 8.478347,12.861498 -0.077,6.047922 c 0.069,2.023222 0.22515,4.01088 0.53931,5.932358 0.30582,1.689734 0.58475,2.334145 1.27121,3.452828 0.41049,0.784578 1.136179,1.513066 1.964619,2.272788 0.7077,-0.137353 1.31673,-0.643797 2.93079,-0.770437 4.55716,-0.357562 13.71376,0 13.71376,0 l 0,8.180755 c 0,0 -0.20431,0.144555 -0.26965,0.192609 l 0,8.937054 -2.58097,0 -2.3113,0 -2.58096,0 0,-4.738178 c -1.62799,0.404772 -3.3756,0.359842 -5.04636,0.154087 l 0,4.545571 -4.89227,0 -2.426869,0 0,-6.66427 c -0.0395,-0.03802 -0.0773,-0.0759 -0.11557,-0.115565 -1.20102,-1.244761 -1.34826,-2.060548 -1.34826,-5.007834 0,-0.141449 0.028,-0.253656 0.0385,-0.385218 -1.04043,-0.958537 -2.06794,-2.075531 -2.92766,-3.505484 -1.08666,-1.979057 -1.54981,-4.020983 -1.81052,-5.855314 -0.35148,-2.21904 -0.50986,-4.419006 -0.57783,-6.587228 l 0.077,-6.240531 c 0,0 -0.569003,-4.528383 3.215015,-4.486411 3.784018,0.04197 3.215015,4.640498 3.215015,4.640498 z"
       id="path3032" />
    <path
       sodipodi:nodetypes="zzacz"
       inkscape:connector-curvature="0"
       id="path3034"
       d="m 16.997685,38.895246 c 2.436382,0 4.080959,1.119053 4.080959,2.426614 0,1.307561 -2.370808,1.005026 -3.610662,0.925081 -1.644021,-0.106005 -4.601655,-0.527837 -4.59049,-1.831336 0.992936,-0.850372 1.683811,-1.520359 4.120193,-1.520359 z"
       style="fill:#e3dbdb;fill-opacity:0.50196078;fill-rule:nonzero;stroke:none"
       inkscape:export-filename="/home/patricia/Julien/catsmen/img/cats/cat_L_orange.png"
       inkscape:export-xdpi="90"
       inkscape:export-ydpi="90" />
    <path
       inkscape:export-ydpi="90"
       inkscape:export-xdpi="90"
       inkscape:export-filename="/home/patricia/Julien/catsmen/img/cats/cat_L_orange.png"
       id="path3020"
       d="m 8.478347,12.861498 -0.077,6.047922 c 0.069,2.023222 0.22515,4.01088 0.53931,5.932358 0.30582,1.689734 0.58475,2.334145 1.27121,3.452828 0.41049,0.784578 1.136179,1.513066 1.964619,2.272788 0.7077,-0.137353 1.31673,-0.643797 2.93079,-0.770437 4.55716,-0.357562 13.71376,0 13.71376,0 l 0,8.180755 c 0,0 -0.20431,0.144555 -0.26965,0.192609 l 0,8.937054 -2.58097,0 -2.3113,0 -2.58096,0 0,-4.738178 c -1.62799,0.404772 -3.3756,0.359842 -5.04636,0.154087 l 0,4.545571 -4.89227,0 -2.426869,0 0,-6.66427 c -0.0395,-0.03802 -0.0773,-0.0759 -0.11557,-0.115565 -1.20102,-1.244761 -1.34826,-2.060548 -1.34826,-5.007834 0,-0.141449 0.028,-0.253656 0.0385,-0.385218 -1.04043,-0.958537 -2.06794,-2.075531 -2.92766,-3.505484 -1.08666,-1.979057 -1.54981,-4.020983 -1.81052,-5.855314 -0.35148,-2.21904 -0.50986,-4.419006 -0.57783,-6.587228 l 0.077,-6.240531 c 0,0 -0.569003,-4.528383 3.215015,-4.486411 3.784018,0.04197 3.215015,4.640498 3.215015,4.640498 z"
       style="fill:none;stroke:#241c1c;stroke-width:1.23269761;stroke-linecap:square;stroke-linejoin:round;stroke-miterlimit:4;stroke-opacity:1;stroke-dashoffset:0"
       inkscape:connector-curvature="0"
       sodipodi:nodetypes="cccccsccccccccccccccsccccczc" />
    <path
       inkscape:export-ydpi="90"
       inkscape:export-xdpi="90"
       inkscape:export-filename="/home/patricia/Julien/catsmen/img/cats/cat_L_orange.png"
       style="fill:none;stroke:#241c1c;stroke-width:1.23000002;stroke-linecap:square;stroke-linejoin:miter;stroke-miterlimit:4;stroke-opacity:1;stroke-dasharray:none"
       d="m 25.942794,41.215931 0,5.83525"
       id="path3022"
       inkscape:connector-curvature="0"
       sodipodi:nodetypes="cc" />
    <path
       inkscape:export-ydpi="90"
       inkscape:export-xdpi="90"
       inkscape:export-filename="/home/patricia/Julien/catsmen/img/cats/cat_L_orange.png"
       style="fill:none;stroke:#241c1c;stroke-width:1.23000002;stroke-linecap:square;stroke-linejoin:miter;stroke-miterlimit:4;stroke-opacity:1;stroke-dasharray:none"
       d="m 21.075689,40.627266 0,4.281594"
       id="path3024"
       inkscape:connector-curvature="0"
       sodipodi:nodetypes="cc" />
    <path
       inkscape:export-ydpi="90"
       inkscape:export-xdpi="90"
       inkscape:export-filename="/home/patricia/Julien/catsmen/img/cats/cat_L_orange.png"
       style="fill:none;stroke:#241c1c;stroke-width:1.23000002;stroke-linecap:square;stroke-linejoin:miter;stroke-miterlimit:4;stroke-opacity:1;stroke-dasharray:none"
       d="m 13.49246,47.036795 0,-5.53525 c 0,0 1.451377,0.900251 2.459804,0.998824"
       id="path3026"
       inkscape:connector-curvature="0"
       sodipodi:nodetypes="ccc" />
    <path
       inkscape:export-ydpi="90"
       inkscape:export-xdpi="90"
       inkscape:export-filename="/home/patricia/Julien/catsmen/img/cats/cat_L_orange.png"
       id="path4148"
       sodipodi:nodetypes="cccc"
       inkscape:connector-curvature="0"
       d="m 40.2031,11.59444 c 0,0 0.167917,-7.500056 -2.448341,-10.18105 -3.311711,-0.794111 -6.633941,7.770007 -6.633941,7.770007 z"
       style="fill:#916f6f;stroke:none" />
    <path
       style="fill:#ffcc00;stroke:#241c1c;stroke-width:1.23269761px;stroke-linecap:butt;stroke-linejoin:miter;stroke-opacity:1"
       d="m 40.2031,11.59444 c 0,0 0.167917,-7.500056 -2.448341,-10.18105 -3.311711,-0.794111 -6.633941,7.770007 -6.633941,7.770007 z"
       inkscape:connector-curvature="0"
       sodipodi:nodetypes="cccc"
       id="path3062"
       inkscape:export-filename="/home/patricia/Julien/catsmen/img/cats/cat_R_yellow.png"
       inkscape:export-xdpi="90"
       inkscape:export-ydpi="90" />
    <path
       inkscape:export-ydpi="90"
       inkscape:export-xdpi="90"
       inkscape:export-filename="/home/patricia/Julien/catsmen/img/cats/cat_R_yellow.png"
       id="path4150"
       sodipodi:nodetypes="cczzcssssc"
       inkscape:connector-curvature="0"
       d="m 29.078858,9.012872 c 0,0 -1.21461,-8.342369 -4.41134,-8.534983 -6.34005,3.30961 -10.98803,13.917334 -10.35706,22.823886 0.63097,8.906552 7.23952,14.287609 16.11098,14.768397 C 39.292897,38.55096 47.008701,32.353769 46.881753,23.142284 46.690463,19.303158 45.29013,15.516863 43.175959,13.52011 41.645313,12.074474 39.700903,11.03955 37.709735,10.355453 35.054668,9.443266 32.170408,9.063926 29.366558,9.20467 c -2.03652,0.102227 -4.07108,0.63625 -5.94572,1.43848 -0.97824,0.418625 -2.68516,1.726176 -2.68516,1.726176"
       style="fill:#ffcc00;stroke:none" />
    <path
       inkscape:export-ydpi="90"
       inkscape:export-xdpi="90"
       inkscape:export-filename="/home/patricia/Julien/catsmen/img/cats/cat_L_orange.png"
       style="fill:#e3dbdb;fill-opacity:0.50196078;fill-rule:nonzero;stroke:none"
       d="m 35.442818,23.249345 c 5.614112,0 9.858567,2.191136 9.858567,4.892268 0,1.865154 -2.013431,3.489537 -5.204985,4.314442 -0.72791,1.755393 -2.405359,3.0047 -4.391485,3.0047 -1.909167,0 -3.543017,-1.164747 -4.314437,-2.812091 -0.003,-0.0054 -0.036,0.0054 -0.0385,0 -3.64847,-0.742469 -6.0789,-2.481201 -6.0789,-4.507051 0,-2.701132 4.55564,-4.892268 10.16976,-4.892268 z"
       id="path4462"
       inkscape:connector-curvature="0"
       sodipodi:nodetypes="cscsccssc" />
    <path
       inkscape:export-ydpi="90"
       inkscape:export-xdpi="90"
       inkscape:export-filename="/home/patricia/Julien/catsmen/img/cats/cat_L_orange.png"
       transform="matrix(-0.83577238,0,0,1.256973,89.328052,-54.810601)"
       d="m 62.547813,58.34684 c 0,2.363098 -2.089822,4.278768 -4.667747,4.278768 -2.577926,0 -4.667747,-1.91567 -4.667747,-4.278768 0,-2.363098 2.089821,-4.278768 4.667747,-4.278768 2.577925,0 4.667747,1.91567 4.667747,4.278768 z"
       sodipodi:ry="4.2787681"
       sodipodi:rx="4.667747"
       sodipodi:cy="58.34684"
       sodipodi:cx="57.880066"
       id="path4152"
       style="fill:#ffffff;fill-opacity:1;fill-rule:nonzero;stroke:#241c1c;stroke-width:1.20267856;stroke-linecap:square;stroke-linejoin:round;stroke-miterlimit:4;stroke-opacity:1;stroke-dasharray:none;stroke-dashoffset:0"
       sodipodi:type="arc" />
    <path
       inkscape:export-ydpi="90"
       inkscape:export-xdpi="90"
       inkscape:export-filename="/home/patricia/Julien/catsmen/img/cats/cat_L_orange.png"
       d="m 62.547813,58.34684 c 0,2.363098 -2.089822,4.278768 -4.667747,4.278768 -2.577926,0 -4.667747,-1.91567 -4.667747,-4.278768 0,-2.363098 2.089821,-4.278768 4.667747,-4.278768 2.577925,0 4.667747,1.91567 4.667747,4.278768 z"
       sodipodi:ry="4.2787681"
       sodipodi:rx="4.667747"
       sodipodi:cy="58.34684"
       sodipodi:cx="57.880066"
       id="path4152-5"
       style="fill:#ffffff;fill-opacity:1;fill-rule:nonzero;stroke:#241c1c;stroke-width:1.20267856;stroke-linecap:square;stroke-linejoin:round;stroke-miterlimit:4;stroke-opacity:1;stroke-dasharray:none;stroke-dashoffset:0"
       sodipodi:type="arc"
       transform="matrix(-0.83577238,0,0,1.256973,77.731638,-54.810601)" />
    <path
       inkscape:export-ydpi="90"
       inkscape:export-xdpi="90"
       inkscape:export-filename="/home/patricia/Julien/catsmen/img/cats/cat_L_orange.png"
       sodipodi:nodetypes="czczc"
       inkscape:connector-curvature="0"
       id="path4174"
       d="m 39.012731,23.92525 c 0,0 0.542483,-1.220591 -3.458343,-1.220591 -4.00082,0 -3.45834,1.220591 -3.45834,1.220591 0,0 1.70398,4.043205 3.957229,3.933014 2.253245,-0.110191 2.959454,-3.933014 2.959454,-3.933014 z"
       style="fill:#d35f5f;stroke:#241c1c;stroke-width:1.23269761px;stroke-linecap:butt;stroke-linejoin:round;stroke-opacity:1" />
    <path
       inkscape:export-ydpi="90"
       inkscape:export-xdpi="90"
       inkscape:export-filename="/home/patricia/Julien/catsmen/img/cats/cat_L_orange.png"
       sodipodi:type="arc"
       style="fill:#44aa00;fill-opacity:1;fill-rule:nonzero;stroke:none"
       id="path4327"
       sodipodi:cx="57.880066"
       sodipodi:cy="58.34684"
       sodipodi:rx="4.667747"
       sodipodi:ry="4.2787681"
       d="m 62.547813,58.34684 c 0,2.363098 -2.089822,4.278768 -4.667747,4.278768 -2.577926,0 -4.667747,-1.91567 -4.667747,-4.278768 0,-2.363098 2.089821,-4.278768 4.667747,-4.278768 2.577925,0 4.667747,1.91567 4.667747,4.278768 z"
       transform="matrix(-0.64609591,0,0,0.97170609,67.022265,-37.750163)" />
    <path
       inkscape:export-ydpi="90"
       inkscape:export-xdpi="90"
       inkscape:export-filename="/home/patricia/Julien/catsmen/img/cats/cat_L_orange.png"
       sodipodi:nodetypes="cccc"
       inkscape:connector-curvature="0"
       id="path4329"
       d="m 26.566448,18.945817 4.21252,0 -4.21252,-1.285403 z"
       style="fill:#ffffff;fill-opacity:0.50196078;stroke:none" />
    <path
       inkscape:export-ydpi="90"
       inkscape:export-xdpi="90"
       inkscape:export-filename="/home/patricia/Julien/catsmen/img/cats/cat_L_orange.png"
       sodipodi:nodetypes="cccc"
       inkscape:connector-curvature="0"
       id="path4331"
       d="m 26.566448,18.945817 4.21252,0 -4.21252,1.285403 z"
       style="fill:#ffffff;fill-opacity:0.29411765;stroke:none" />
    <path
       inkscape:export-ydpi="90"
       inkscape:export-xdpi="90"
       inkscape:export-filename="/home/patricia/Julien/catsmen/img/cats/cat_L_orange.png"
       transform="matrix(-0.5008211,0,0,0.75321777,59.088424,-24.934248)"
       d="m 62.547813,58.34684 c 0,2.363098 -2.089822,4.278768 -4.667747,4.278768 -2.577926,0 -4.667747,-1.91567 -4.667747,-4.278768 0,-2.363098 2.089821,-4.278768 4.667747,-4.278768 2.577925,0 4.667747,1.91567 4.667747,4.278768 z"
       sodipodi:ry="4.2787681"
       sodipodi:rx="4.667747"
       sodipodi:cy="58.34684"
       sodipodi:cx="57.880066"
       id="path4333"
       style="fill:#000000;fill-opacity:1;fill-rule:nonzero;stroke:none"
       sodipodi:type="arc" />
    <path
       inkscape:export-ydpi="90"
       inkscape:export-xdpi="90"
       inkscape:export-filename="/home/patricia/Julien/catsmen/img/cats/cat_L_orange.png"
       transform="matrix(-0.97670617,-0.44163125,-0.3914877,0.86580932,115.92777,-7.508179)"
       d="m 64.966728,61.697472 c 0,0.729147 -0.283231,1.320238 -0.632614,1.320238 -0.349383,0 -0.632614,-0.591091 -0.632614,-1.320238 0,-0.729148 0.283231,-1.320239 0.632614,-1.320239 0.349383,0 0.632614,0.591091 0.632614,1.320239 z"
       sodipodi:ry="1.3202382"
       sodipodi:rx="0.6326142"
       sodipodi:cy="61.697472"
       sodipodi:cx="64.334114"
       id="path4335"
       style="fill:#ffffff;fill-opacity:1;fill-rule:nonzero;stroke:none"
       sodipodi:type="arc" />
    <path
       inkscape:export-ydpi="90"
       inkscape:export-xdpi="90"
       inkscape:export-filename="/home/patricia/Julien/catsmen/img/cats/cat_L_orange.png"
       transform="matrix(-1.071911,0,0,0.56885802,98.428787,-14.640396)"
       d="m 64.966728,61.697472 c 0,0.729147 -0.283231,1.320238 -0.632614,1.320238 -0.349383,0 -0.632614,-0.591091 -0.632614,-1.320238 0,-0.729148 0.283231,-1.320239 0.632614,-1.320239 0.349383,0 0.632614,0.591091 0.632614,1.320239 z"
       sodipodi:ry="1.3202382"
       sodipodi:rx="0.6326142"
       sodipodi:cy="61.697472"
       sodipodi:cx="64.334114"
       id="path4337"
       style="fill:#ffffff;fill-opacity:1;fill-rule:nonzero;stroke:none"
       sodipodi:type="arc" />
    <path
       inkscape:export-ydpi="90"
       inkscape:export-xdpi="90"
       inkscape:export-filename="/home/patricia/Julien/catsmen/img/cats/cat_L_orange.png"
       transform="matrix(-0.64609591,0,0,0.97170609,78.61868,-37.750163)"
       d="m 62.547813,58.34684 c 0,2.363098 -2.089822,4.278768 -4.667747,4.278768 -2.577926,0 -4.667747,-1.91567 -4.667747,-4.278768 0,-2.363098 2.089821,-4.278768 4.667747,-4.278768 2.577925,0 4.667747,1.91567 4.667747,4.278768 z"
       sodipodi:ry="4.2787681"
       sodipodi:rx="4.667747"
       sodipodi:cy="58.34684"
       sodipodi:cx="57.880066"
       id="path4450"
       style="fill:#44aa00;fill-opacity:1;fill-rule:nonzero;stroke:none"
       sodipodi:type="arc" />
    <path
       inkscape:export-ydpi="90"
       inkscape:export-xdpi="90"
       inkscape:export-filename="/home/patricia/Julien/catsmen/img/cats/cat_L_orange.png"
       style="fill:#ffffff;fill-opacity:0.50196078;stroke:none"
       d="m 38.162858,18.945817 4.212528,0 -4.212528,-1.285403 z"
       id="path4452"
       inkscape:connector-curvature="0"
       sodipodi:nodetypes="cccc" />
    <path
       inkscape:export-ydpi="90"
       inkscape:export-xdpi="90"
       inkscape:export-filename="/home/patricia/Julien/catsmen/img/cats/cat_L_orange.png"
       style="fill:#ffffff;fill-opacity:0.29411765;stroke:none"
       d="m 38.162858,18.945817 4.212528,0 -4.212528,1.285403 z"
       id="path4454"
       inkscape:connector-curvature="0"
       sodipodi:nodetypes="cccc" />
    <path
       inkscape:export-ydpi="90"
       inkscape:export-xdpi="90"
       inkscape:export-filename="/home/patricia/Julien/catsmen/img/cats/cat_L_orange.png"
       sodipodi:type="arc"
       style="fill:#000000;fill-opacity:1;fill-rule:nonzero;stroke:none"
       id="path4456"
       sodipodi:cx="57.880066"
       sodipodi:cy="58.34684"
       sodipodi:rx="4.667747"
       sodipodi:ry="4.2787681"
       d="m 62.547813,58.34684 c 0,2.363098 -2.089822,4.278768 -4.667747,4.278768 -2.577926,0 -4.667747,-1.91567 -4.667747,-4.278768 0,-2.363098 2.089821,-4.278768 4.667747,-4.278768 2.577925,0 4.667747,1.91567 4.667747,4.278768 z"
       transform="matrix(-0.5008211,0,0,0.75321777,70.684839,-24.934248)" />
    <path
       inkscape:export-ydpi="90"
       inkscape:export-xdpi="90"
       inkscape:export-filename="/home/patricia/Julien/catsmen/img/cats/cat_L_orange.png"
       sodipodi:type="arc"
       style="fill:#ffffff;fill-opacity:1;fill-rule:nonzero;stroke:none"
       id="path4458"
       sodipodi:cx="64.334114"
       sodipodi:cy="61.697472"
       sodipodi:rx="0.6326142"
       sodipodi:ry="1.3202382"
       d="m 64.966728,61.697472 c 0,0.729147 -0.283231,1.320238 -0.632614,1.320238 -0.349383,0 -0.632614,-0.591091 -0.632614,-1.320238 0,-0.729148 0.283231,-1.320239 0.632614,-1.320239 0.349383,0 0.632614,0.591091 0.632614,1.320239 z"
       transform="matrix(-0.97670617,-0.44163125,-0.3914877,0.86580932,127.52418,-7.508179)" />
    <path
       inkscape:export-ydpi="90"
       inkscape:export-xdpi="90"
       inkscape:export-filename="/home/patricia/Julien/catsmen/img/cats/cat_L_orange.png"
       sodipodi:type="arc"
       style="fill:#ffffff;fill-opacity:1;fill-rule:nonzero;stroke:none"
       id="path4460"
       sodipodi:cx="64.334114"
       sodipodi:cy="61.697472"
       sodipodi:rx="0.6326142"
       sodipodi:ry="1.3202382"
       d="m 64.966728,61.697472 c 0,0.729147 -0.283231,1.320238 -0.632614,1.320238 -0.349383,0 -0.632614,-0.591091 -0.632614,-1.320238 0,-0.729148 0.283231,-1.320239 0.632614,-1.320239 0.349383,0 0.632614,0.591091 0.632614,1.320239 z"
       transform="matrix(-1.071911,0,0,0.56885802,110.0252,-14.640396)" />
    <path
       inkscape:export-ydpi="90"
       inkscape:export-xdpi="90"
       inkscape:export-filename="/home/patricia/Julien/catsmen/img/cats/cat_L_orange.png"
       inkscape:connector-curvature="0"
       id="path4036"
       d="m 29.037993,26.638307 c -5.91248,-2.489465 -5.91248,-2.645057 -5.91248,-2.645057"
       style="fill:none;stroke:#000000;stroke-width:1px;stroke-linecap:butt;stroke-linejoin:miter;stroke-opacity:1" />
    <path
       inkscape:export-ydpi="90"
       inkscape:export-xdpi="90"
       inkscape:export-filename="/home/patricia/Julien/catsmen/img/cats/cat_L_orange.png"
       inkscape:connector-curvature="0"
       id="path4038"
       d="m 28.882403,28.544303 -5.6013,0"
       style="fill:none;stroke:#000000;stroke-width:1px;stroke-linecap:butt;stroke-linejoin:miter;stroke-opacity:1" />
    <path
       inkscape:export-ydpi="90"
       inkscape:export-xdpi="90"
       inkscape:export-filename="/home/patricia/Julien/catsmen/img/cats/cat_L_orange.png"
       inkscape:connector-curvature="0"
       id="path4036-2"
       d="m 29.037993,30.4503 c -5.91248,2.489465 -5.91248,2.645057 -5.91248,2.645057"
       style="fill:none;stroke:#000000;stroke-width:1px;stroke-linecap:butt;stroke-linejoin:miter;stroke-opacity:1" />
    <path
       inkscape:export-ydpi="90"
       inkscape:export-xdpi="90"
       inkscape:export-filename="/home/patricia/Julien/catsmen/img/cats/cat_L_orange.png"
       sodipodi:nodetypes="cc"
       inkscape:connector-curvature="0"
       id="path4071"
       d="m 36.121178,28.225498 0.0389,2.836111"
       style="fill:none;stroke:#241c1c;stroke-width:1.23000002;stroke-linecap:butt;stroke-linejoin:miter;stroke-miterlimit:4;stroke-opacity:1;stroke-dasharray:none" />
    <path
       inkscape:export-ydpi="90"
       inkscape:export-xdpi="90"
       inkscape:export-filename="/home/patricia/Julien/catsmen/img/cats/cat_L_orange.png"
       sodipodi:nodetypes="czcsc"
       inkscape:connector-curvature="0"
       id="path4073"
       d="m 32.380508,31.251044 c 0,0 1.04736,1.801312 1.89784,1.760318 0.85048,-0.04099 1.89784,-1.760318 1.89784,-1.760318 0,0 0.964293,1.760318 1.897842,1.760318 0.829823,0 1.897843,-1.760318 1.897843,-1.760318"
       style="fill:none;stroke:#241c1c;stroke-width:1.23000002;stroke-linecap:butt;stroke-linejoin:miter;stroke-miterlimit:4;stroke-opacity:1;stroke-dasharray:none" />
    <path
       style="fill:none;stroke:#241c1c;stroke-width:1.23269761px;stroke-linecap:butt;stroke-linejoin:miter;stroke-opacity:1"
       d="m 29.078858,9.012872 c 0,0 -1.21461,-8.342369 -4.41134,-8.534983 -6.34005,3.30961 -10.98803,13.917334 -10.35706,22.823886 0.63097,8.906552 7.23952,14.287609 16.11098,14.768397 C 39.292897,38.55096 47.008701,32.353769 46.881753,23.142284 46.690463,19.303158 45.29013,15.516863 43.175959,13.52011 41.645313,12.074474 39.700903,11.03955 37.709735,10.355453 35.054668,9.443266 32.170408,9.063926 29.366558,9.20467 c -2.03652,0.102227 -4.07108,0.63625 -5.94572,1.43848 -0.97824,0.418625 -2.68516,1.726176 -2.68516,1.726176"
       inkscape:connector-curvature="0"
       sodipodi:nodetypes="cczzcssssc"
       id="path3856"
       inkscape:export-filename="/home/patricia/Julien/catsmen/img/cats/cat_L_orange.png"
       inkscape:export-xdpi="90"
       inkscape:export-ydpi="90" />
  </g>
</svg>
